<svg t="1724935251800" class="icon" viewBox="0 0 1024 1024" version="1.1" xmlns="http://www.w3.org/2000/svg" p-id="17152" width="48" height="48"><path d="M768 170.666667a42.666667 42.666667 0 0 1 42.666667 42.666666v170.666667a42.666667 42.666667 0 1 1-85.333334 0V213.333333a42.666667 42.666667 0 0 1 42.666667-42.666666zM426.666667 170.666667a42.666667 42.666667 0 0 1 39.253333 25.856l256 597.333333a42.666667 42.666667 0 1 1-78.506667 33.621333L426.666667 321.664 209.92 827.477333a42.666667 42.666667 0 0 1-78.506667-33.621333l256-597.333333A42.666667 42.666667 0 0 1 426.666667 170.666667z" fill="#505050" p-id="17153"></path><path d="M256 554.666667a42.666667 42.666667 0 0 1 42.666667-42.666667h256a42.666667 42.666667 0 1 1 0 85.333333H298.666667a42.666667 42.666667 0 0 1-42.666667-42.666666zM640 298.666667a42.666667 42.666667 0 0 1 42.666667-42.666667h170.666666a42.666667 42.666667 0 1 1 0 85.333333h-170.666666a42.666667 42.666667 0 0 1-42.666667-42.666666z" fill="#505050" p-id="17154"></path></svg>
