<svg t="1724934276223" class="icon" viewBox="0 0 1024 1024" version="1.1" xmlns="http://www.w3.org/2000/svg" p-id="7149" width="48" height="48"><path d="M870.006154 504.280615L522.24 156.672l-52.932923 56.713846-54.980923-52.854154a28.356923 28.356923 0 0 0-40.172308 40.093539l55.532308 55.453538-258.993231 281.993846a53.326769 53.326769 0 0 0 0 74.673231l243.160615 243.633231c10.24 10.082462 24.024615 15.753846 38.439385 15.753846a54.587077 54.587077 0 0 0 36.233846-14.493538l322.56-298.614154v227.800615h59.707077v-281.993846l-0.787692-0.472615zM627.633231 373.76L499.633231 245.76l24.339692-26.466462 282.466462 282.466462-573.912616 31.980308L460.8 287.586462l128 128a28.356923 28.356923 0 1 0 40.172308-40.172308l-1.339077-1.654154z" fill="#000000" p-id="7150"></path></svg>
