<svg t="1724938752853" class="icon" viewBox="0 0 1024 1024" version="1.1" xmlns="http://www.w3.org/2000/svg" p-id="31116" width="48" height="48"><path d="M606 83c23.4 6.7 37.7 29.6 34.3 53l-1.4 6.4-204.9 717c-7.3 25.5-33.9 40.2-59.3 33-23.4-6.7-37.7-29.6-34.3-53l1.4-6.4 204.9-717c7.3-25.6 33.8-40.3 59.3-33zM284 287.6c16.8 17.2 18.1 43.9 3.9 62.6l-4.7 5.3-147 143.4 147.6 148.6c17 17.1 18.4 43.8 4.4 62.5l-4.7 5.4c-17.1 17-43.8 18.4-62.5 4.4l-5.4-4.7-181.7-183c-17.1-17.2-18.4-44.1-4.2-62.8l4.7-5.4 181.7-177.3c19-18.4 49.4-18 67.9 1z m453.6 0c18.5-19 48.9-19.3 67.9-0.8L987.2 464l4.7 5.4c14.2 18.7 12.9 45.6-4.2 62.8L806 715.2l-5.4 4.7c-18.7 14-45.4 12.6-62.5-4.4l-4.7-5.4c-14-18.7-12.6-45.4 4.4-62.5L885.4 499l-147-143.4-4.7-5.3c-14.1-18.8-12.9-45.5 3.9-62.7z" fill="#5A6064" p-id="31117"></path></svg>
