<svg t="1724938969591" class="icon" viewBox="0 0 1122 1024" version="1.1" xmlns="http://www.w3.org/2000/svg" p-id="33424" width="48" height="48"><path d="M981.917808 561.09589H140.273973C63.123288 561.09589 0 497.972603 0 420.821918V140.273973C0 63.123288 63.123288 0 140.273973 0h841.643835c77.150685 0 140.273973 63.123288 140.273973 140.273973v280.547945c0 77.150685-63.123288 140.273973-140.273973 140.273972zM140.273973 84.164384c-28.054795 0-56.109589 28.054795-56.109589 56.109589v280.547945c0 28.054795 28.054795 56.109589 56.109589 56.109589h841.643835c28.054795 0 56.109589-28.054795 56.109589-56.109589V140.273973c0-28.054795-28.054795-56.109589-56.109589-56.109589H140.273973zM841.643836 813.589041H140.273973c-21.041096 0-42.082192-21.041096-42.082192-42.082192s21.041096-42.082192 42.082192-42.082191h701.369863c21.041096 0 42.082192 21.041096 42.082191 42.082191s-21.041096 42.082192-42.082191 42.082192zM701.369863 1024H140.273973c-21.041096 0-42.082192-21.041096-42.082192-42.082192s21.041096-42.082192 42.082192-42.082192h561.09589c21.041096 0 42.082192 21.041096 42.082192 42.082192s-21.041096 42.082192-42.082192 42.082192z" p-id="33425"></path></svg>
